<?xml version="1.0" standalone="no"?>
<!DOCTYPE svg PUBLIC "-//W3C//DTD SVG 20010904//EN"
 "http://www.w3.org/TR/2001/REC-SVG-20010904/DTD/svg10.dtd">
<svg version="1.0" xmlns="http://www.w3.org/2000/svg"
 width="256.000000pt" height="256.000000pt" viewBox="0 0 256.000000 256.000000"
 preserveAspectRatio="xMidYMid meet">

<g transform="translate(0.000000,256.000000) scale(0.100000,-0.100000)"
fill="#000000" stroke="none">
<path d="M972 2548 c-7 -7 -12 -36 -12 -65 l0 -53 -280 0 c-294 0 -328 -5
-344 -45 -3 -9 -6 -79 -6 -156 l0 -139 950 0 950 0 0 139 c0 77 -3 147 -6 156
-16 40 -50 45 -344 45 l-280 0 0 53 c0 29 -5 58 -12 65 -17 17 -599 17 -616 0z"/>
<path d="M467 1933 c-2 -5 16 -417 40 -918 48 -1004 43 -959 113 -997 33 -17
72 -18 660 -18 588 0 627 1 660 18 70 38 65 -7 113 997 24 501 42 913 40 918
-2 4 -368 7 -813 7 -445 0 -811 -3 -813 -7z m523 -413 c19 -19 20 -33 20 -548
0 -614 7 -572 -95 -572 -44 0 -68 5 -79 16 -14 14 -16 77 -16 551 0 617 -7
573 92 573 45 0 63 -5 78 -20z m364 4 c14 -14 16 -78 16 -558 0 -408 -3 -545
-12 -554 -16 -16 -140 -16 -156 0 -9 9 -12 146 -12 554 0 620 -7 574 90 574
40 0 64 -5 74 -16z m368 -1 c17 -15 18 -46 18 -554 0 -475 -2 -539 -16 -553
-11 -11 -35 -16 -79 -16 -102 0 -95 -42 -95 572 0 515 1 529 20 548 26 26 124
28 152 3z"/>
</g>
</svg>
