<svg width="21" height="24" viewBox="0 0 21 24" fill="#000000" xmlns="http://www.w3.org/2000/svg">
<path d="M6 4.5C6 3.67157 6.67157 3 7.5 3C8.32843 3 9 3.67157 9 4.5V22.5C9 23.3284 8.32843 24 7.5 24C6.67157 24 6 23.3284 6 22.5V4.5ZM12 7.5C12 6.67157 12.6716 6 13.5 6C14.3284 6 15 6.67157 15 7.5V22.5C15 23.3284 14.3284 24 13.5 24C12.6716 24 12 23.3284 12 22.5V7.5ZM18 1.5C18 0.671573 18.6716 0 19.5 0C20.3284 0 21 0.671573 21 1.5V22.5C21 23.3284 20.3284 24 19.5 24C18.6716 24 18 23.3284 18 22.5V12V1.5ZM0 13.5C0 12.6716 0.671573 12 1.5 12C2.32843 12 3 12.6716 3 13.5V22.5C3 23.3284 2.32843 24 1.5 24C0.671573 24 0 23.3284 0 22.5V13.5Z" fill="#000000"/>
</svg>
