<?xml version="1.0" standalone="no"?>
<!DOCTYPE svg PUBLIC "-//W3C//DTD SVG 20010904//EN"
 "http://www.w3.org/TR/2001/REC-SVG-20010904/DTD/svg10.dtd">
<svg version="1.0" xmlns="http://www.w3.org/2000/svg"
 width="512.000000pt" height="512.000000pt" viewBox="0 0 512.000000 512.000000"
 preserveAspectRatio="xMidYMid meet">

<g transform="translate(0.000000,512.000000) scale(0.100000,-0.100000)"
fill="#000000" stroke="none">
<path d="M3972 4719 c-142 -18 -314 -83 -439 -166 -190 -126 -352 -351 -413
-578 -28 -102 -38 -313 -20 -423 72 -448 450 -799 906 -841 732 -67 1295 637
1060 1326 -155 455 -618 744 -1094 682z m298 -415 c215 -63 390 -248 435 -460
80 -379 -207 -734 -595 -736 -117 0 -170 12 -278 62 -160 75 -297 248 -333
418 -17 83 -6 252 21 329 72 205 262 362 488 403 64 12 195 4 262 -16z"/>
<path d="M4025 4012 c-51 -24 -101 -80 -114 -129 -14 -50 -14 -287 0 -338 15
-55 82 -120 138 -135 81 -22 173 13 218 82 27 41 28 45 31 212 3 162 2 173
-20 216 -47 91 -164 134 -253 92z"/>
<path d="M624 4025 c-278 -60 -507 -278 -596 -567 l-23 -73 -3 -1120 c-2 -821
0 -1140 8 -1195 42 -266 214 -490 465 -606 158 -73 41 -68 1620 -72 999 -2
1445 0 1505 8 274 36 499 197 620 443 76 156 75 143 75 773 l0 561 -28 40
c-96 139 -311 102 -356 -62 -7 -26 -11 -208 -11 -536 0 -469 -1 -498 -20 -555
-37 -110 -125 -200 -237 -246 l-58 -23 -1399 -3 c-925 -1 -1419 1 -1455 8
-161 30 -286 151 -320 310 -9 41 -11 334 -9 1140 l3 1085 23 58 c33 82 123
176 204 213 l63 29 925 5 c879 5 927 6 960 24 50 26 69 46 92 91 38 73 19 186
-38 236 -58 51 -12 49 -1016 48 -738 0 -946 -3 -994 -14z"/>
<path d="M842 3194 c-120 -60 -145 -208 -52 -307 21 -23 198 -181 394 -352
195 -170 355 -312 355 -315 0 -3 -171 -155 -381 -339 -209 -183 -388 -347
-399 -364 -57 -95 -15 -232 85 -278 53 -24 127 -24 174 0 20 11 214 175 430
365 216 190 395 346 398 346 3 0 47 -37 96 -81 176 -157 235 -158 414 -7 l105
90 37 -33 c20 -18 198 -175 395 -348 198 -174 373 -324 390 -333 44 -23 128
-23 175 1 103 53 139 164 87 267 -21 40 -92 107 -401 378 l-375 330 26 20
c139 114 277 237 295 264 53 75 43 178 -23 247 -66 68 -151 82 -233 38 -18
-10 -174 -138 -346 -284 -172 -146 -319 -268 -325 -273 -8 -4 -168 130 -450
376 -664 583 -671 588 -708 604 -51 21 -105 17 -163 -12z"/>
</g>
</svg>
