<?xml version="1.0" standalone="no"?>
<!DOCTYPE svg PUBLIC "-//W3C//DTD SVG 20010904//EN"
 "http://www.w3.org/TR/2001/REC-SVG-20010904/DTD/svg10.dtd">
<svg version="1.0" xmlns="http://www.w3.org/2000/svg"
 width="512.000000pt" height="512.000000pt" viewBox="0 0 512.000000 512.000000"
 preserveAspectRatio="xMidYMid meet">

<g transform="translate(0.000000,512.000000) scale(0.100000,-0.100000)"
fill="#000000" stroke="none">
<path d="M2762 5095 c-39 -20 -59 -39 -80 -73 -25 -43 -27 -58 -32 -175 l-5
-129 -70 -22 c-129 -42 -248 -111 -342 -199 l-52 -49 -108 64 c-103 60 -111
63 -175 63 -58 0 -72 -4 -109 -30 -49 -35 -80 -88 -87 -150 -3 -35 1 -57 22
-100 25 -50 36 -60 122 -113 53 -31 103 -62 111 -68 15 -10 15 -18 -2 -95 -25
-111 -26 -286 -1 -392 9 -43 16 -82 14 -88 -2 -5 -51 -38 -108 -73 -95 -57
-108 -69 -133 -117 -23 -43 -28 -63 -24 -100 5 -64 36 -119 86 -154 37 -26 51
-30 109 -30 64 0 72 3 175 63 l109 63 51 -48 c94 -88 213 -157 342 -199 l70
-22 5 -129 c5 -117 7 -132 33 -175 37 -63 114 -103 188 -96 60 6 123 46 154
98 17 29 21 58 25 169 l5 134 64 18 c96 26 219 92 316 170 l86 69 97 -57 c80
-47 107 -58 152 -61 70 -5 132 26 175 87 26 37 30 51 30 110 0 97 -27 134
-150 206 -52 31 -95 59 -95 62 0 2 9 51 21 106 17 84 20 124 16 227 -3 69 -13
150 -21 180 -9 30 -16 60 -16 66 0 6 43 37 95 68 111 66 145 108 153 186 12
129 -89 230 -217 218 -34 -3 -74 -20 -144 -61 l-96 -57 -86 69 c-97 78 -220
144 -316 170 l-64 18 -5 134 c-6 154 -17 183 -88 233 -60 42 -130 46 -200 11z
m206 -770 c188 -45 337 -191 387 -381 71 -273 -107 -563 -387 -629 -219 -51
-456 52 -566 246 -37 66 -72 191 -72 259 0 68 35 193 72 259 65 115 199 215
331 247 71 17 160 17 235 -1z"/>
<path d="M610 2633 c-195 -20 -468 -89 -533 -135 -43 -31 -81 -119 -74 -174 6
-60 53 -132 99 -157 64 -32 106 -32 219 1 140 41 253 62 379 69 170 9 259 -22
577 -199 345 -193 534 -278 755 -342 278 -80 594 -105 898 -71 143 17 194 13
250 -15 44 -22 65 -46 85 -93 32 -78 8 -170 -58 -221 -52 -40 -113 -63 -227
-86 -212 -43 -510 -37 -774 17 -142 29 -186 26 -249 -19 -36 -26 -77 -110 -77
-159 0 -45 44 -133 79 -159 68 -48 349 -97 611 -107 488 -18 1064 87 1676 308
288 103 314 111 349 103 83 -18 131 -81 122 -161 -8 -75 -37 -99 -228 -195
-540 -270 -967 -390 -1524 -429 -485 -34 -952 34 -1465 214 -219 77 -351 134
-620 268 -252 125 -343 159 -484 179 -156 22 -278 0 -337 -59 -67 -66 -75
-163 -22 -249 44 -72 84 -87 228 -88 149 0 174 -9 453 -148 472 -237 861 -374
1307 -460 252 -48 390 -60 685 -61 302 0 433 10 706 55 432 72 793 191 1229
409 220 109 233 118 306 190 109 109 169 247 169 391 0 129 -58 274 -147 370
-157 170 -384 218 -626 131 -45 -16 -163 -58 -262 -94 -99 -36 -232 -80 -295
-99 l-116 -35 4 92 c12 259 -151 502 -393 585 -108 37 -204 44 -368 26 -331
-36 -589 -11 -869 84 -154 53 -275 110 -538 257 -327 181 -440 230 -600 259
-69 12 -215 16 -300 7z"/>
</g>
</svg>
